<svg width="461" height="691" viewBox="0 0 461 691" fill="none" xmlns="http://www.w3.org/2000/svg">
          <path fill-rule="evenodd" clip-rule="evenodd" d="M277.435 68.179C327.895 50.2223 376.188 -19.8005 423.441 5.41593C472.816 31.765 442.67 114.464 462.346 166.857C474.695 199.741 516.605 220.287 517.325 255.407C518.087 292.591 462.718 316.157 466.166 353.188C470.843 403.412 539.413 433.715 538.624 484.149C537.944 527.557 491.514 555.774 462.49 588.058C428.789 625.546 403.583 693.91 353.304 690.289C294.903 686.084 270.584 610.083 226.901 571.094C202.011 548.878 175.011 530.838 149.966 508.798C126.737 488.355 105.893 466.807 83.79 445.153C55.5475 417.484 -6.66862 401.317 0.583446 362.45C9.26248 315.936 110.588 327.573 114.527 280.42C120.126 213.415 2.49698 167.833 22.2149 103.551C36.9794 55.4175 121.497 102.031 171.367 95.1191C207.899 90.0559 242.688 80.5441 277.435 68.179Z" fill="url(#paint0_linear_13_3)"/>
          <defs>
          <linearGradient id="paint0_linear_13_3" x1="483" y1="280" x2="4.68141" y2="354.696" gradientUnits="userSpaceOnUse">
          <stop stop-color="#620C90"/>
          <stop offset="1" stop-color="#EF5B5B"/>
          <stop offset="1" stop-color="#B03873"/>
          </linearGradient>
          </defs>
          </svg>