<svg width="86" height="80" viewBox="0 0 86 80" fill="none" xmlns="http://www.w3.org/2000/svg">
                    <g clip-path="url(#clip0_4_2)">
                    <path d="M59.9792 39.3747L59.8556 79.9973C59.6807 79.5224 59.3644 79.1123 58.9491 78.8221C58.5339 78.5319 58.0395 78.3754 57.5325 78.3738C57.0255 78.3722 56.5302 78.5255 56.1131 78.8131C55.696 79.1007 55.377 79.5088 55.1992 79.9826L55.3335 37.7623L59.9792 39.3747Z" fill="white"/>
                    <path d="M84.8974 13.4049C81.1879 3.18628 68.7174 -2.35998 57.1011 1.04176L55.4343 1.52696C55.4146 11.3837 55.3936 21.24 55.3712 31.0959C56.6147 31.7676 57.9046 32.3499 59.2312 32.8383C59.5052 32.9393 59.7765 33.0344 60.0451 33.1238C60.0559 23.7799 60.0662 14.4361 60.076 5.09222C68.8732 3.30557 77.8046 7.51285 80.5204 14.9905C82.6035 20.7244 80.6627 27.5092 76.2615 31.4216C69.0021 37.8739 58.3152 33.6023 55.1912 31.7205C54.222 31.1211 53.3066 30.439 52.4554 29.6818C50.3736 27.7638 49.0023 25.4799 47.8956 23.0097L44.7864 14.8471C42.8564 9.88791 40.2723 5.15388 34.215 2.25609C28.1578 -0.641688 20.3948 -0.754275 14.0044 1.97999C11.3344 3.12597 6.36766 5.88436 3.10263 11.4963C-0.792293 18.1885 -1.03673 26.5951 2.47139 33.4374C5.82908 39.9903 12.2396 44.5487 19.6131 45.6344C23.5085 46.2039 27.4854 45.7445 31.1475 44.3021C37.8548 41.6764 41.3199 36.4558 42.8242 34.1371C43.82 32.5939 44.6638 30.9583 45.3438 29.2529C44.8853 28.643 44.4719 28.0007 44.1068 27.3309C43.5765 26.3527 43.1567 25.3188 42.8551 24.2482C41.8758 26.8428 40.5624 29.2992 38.9481 31.5556C36.8945 34.4212 34.3023 38.0977 29.4485 39.9997C26.5399 41.1265 23.3906 41.491 20.3008 41.0585C14.4127 40.1846 9.28751 36.555 6.62419 31.3345C3.83058 25.8874 4.02264 19.1844 7.13187 13.8459C9.72938 9.38395 13.7036 7.17911 15.8458 6.25965C18.3894 5.18417 21.1243 4.6321 23.8868 4.63651C26.7999 4.63651 29.6822 5.241 32.2031 6.44461C37.4908 8.96978 39.633 14.7841 41.5684 19.5597C42.7772 22.5392 43.4823 25.3231 45.7749 28.8656C47.5429 31.6664 49.9511 34.009 52.8019 35.7012C53.6162 36.1859 54.4574 36.624 55.3215 37.0134L59.9726 38.6218C66.5026 40.2302 73.9232 39.5305 79.2887 34.9453C85.2278 29.8722 87.5823 20.8102 84.8974 13.4049Z" fill="white"/>
                    <path d="M48.4972 23.1756C48.1713 22.3249 47.8472 21.4698 47.5248 20.6102C47.0977 19.4718 46.6796 18.3401 46.2704 17.2151C46.5011 16.2266 46.6227 15.2157 46.633 14.2008C46.6773 9.68251 44.4841 6.29283 43.3143 4.75682C43.5972 4.87751 43.9027 4.93647 44.2103 4.92977C44.5179 4.92306 44.8205 4.85085 45.0979 4.71795C45.4338 4.54065 45.7155 4.27604 45.9132 3.9521C46.1108 3.62816 46.2171 3.25693 46.2207 2.87769C47.7212 4.70301 48.8556 6.79942 49.5623 9.05256C50.2041 11.1876 50.4735 13.4168 50.3587 15.6429C50.2303 18.2501 49.5982 20.8078 48.4972 23.1756Z" fill="white"/>
                    </g>
                    <defs>
                    <clipPath id="clip0_4_2">
                    <rect width="86" height="80" fill="white"/>
                    </clipPath>
                    </defs>
                    </svg>