<svg width="535" height="710" viewBox="0 0 535 710" fill="none" xmlns="http://www.w3.org/2000/svg">
<path d="M-32.4359 495.655C-62.7696 522.531 -55.0535 596.448 11.3302 558.93C22.2148 552.778 42.0633 545.141 67.0574 538.075C89.9533 531.601 115.569 563.031 148.398 563.336C199.883 563.814 207.015 487.317 234.528 488.769C270.565 490.67 299.475 526.968 324.982 543.484C348.994 559.032 379.73 563.157 408.026 558.568C457.666 550.518 499.796 515.647 484.929 468.586C477.486 445.027 455.761 418.414 413.545 390.58C394.67 378.136 378.746 366.893 365.417 356.593C331.111 330.083 385.178 320.428 371.672 278.692C363.977 254.911 311.158 246.833 327.536 219.624C339.182 200.277 353.637 177.667 366.239 148.388C388.37 96.9678 376.009 47.6602 321.709 60.353C296.077 66.3447 261.098 86.1525 215.991 126.076C187.125 151.625 176.273 119.007 131.692 131.465C87.111 143.923 78.5357 181.691 52.4465 166.437L51.9239 166.132C32.0399 154.505 10.8329 142.105 -20.7231 142.808C-47.9055 143.414 -71.4173 153.127 -86.8739 167.565C-103.416 183.016 -110.731 203.878 -103.446 224.779C-96.136 245.75 -74.1262 266.76 -31.9872 282.381C-4.20428 292.68 -48.4414 323.251 -31.2772 353.907C-14.1131 384.562 34.7014 371.447 28.3255 396.046C17.2503 438.776 3.09033 464.177 -32.4359 495.655Z" stroke="url(#paint0_linear_28_120)" stroke-width="3"/>
<path d="M136.241 357.634C131.578 361.742 136.62 370.866 142.697 369.148C149.617 367.193 157.094 360.528 163.968 358.402C177.241 354.298 182.656 357.503 192.921 364.078C196.597 366.436 201.309 367.051 205.65 366.34C213.266 365.092 219.742 359.761 217.482 352.598C216.351 349.012 213.031 344.967 206.57 340.745C203.681 338.857 201.243 337.151 199.204 335.588C189.881 328.948 191.486 318.921 193.455 314.737C195.249 311.785 197.476 308.334 199.421 303.868C202.837 296.024 198.844 287.577 192.631 290.475C183.853 294.569 155.875 322.641 143.946 308.695C138.404 302.217 132.303 304.781 129.926 306.987C127.383 309.348 126.252 312.53 127.36 315.711C128.472 318.903 135.621 322.204 138.293 324.455C148.158 332.767 154.736 341.015 136.241 357.634Z" stroke="url(#paint1_linear_28_120)" stroke-width="3"/>
<path d="M22.5488 541.89C-37.9784 575.79 -45.0095 508.235 -17.2014 483.595C16.7871 453.45 29.0736 429.587 38.2564 389.951C43.9359 367.467 -0.698567 379.272 -16.5201 351.242C-32.3415 323.212 7.719 295.249 -17.6094 285.732C-56.0497 271.229 -75.9737 251.824 -82.3958 232.529C-88.9176 213.412 -82.0709 194.322 -66.7938 180.255C-52.5042 167.11 -30.8496 158.362 -5.86734 158.106C24.1756 158.732 46.0767 167.675 65.0977 177.963C89.1149 191.711 97.1469 157.474 137.83 146.389C178.513 135.303 188.401 165.351 214.51 142.461C255.375 106.542 286.998 88.8333 310.158 83.65C359.473 72.2922 370.64 117.478 350.553 164.614C339.136 191.605 326.161 212.556 315.987 230.462C301.27 255.36 349.547 262.867 356.81 284.677C369.391 322.844 320.421 331.816 351.796 356.119C364.084 365.672 378.674 376.075 395.898 387.561C434.513 413.538 453.696 438.236 459.78 459.783C473.112 502.635 434.578 534.363 389.217 541.654C363.276 545.796 335.122 541.974 313.109 527.719C288.973 512.091 262.178 478.772 228.194 477.411C202.851 476.185 196.04 545.987 148.874 545.748C118.681 545.666 95.0502 517.264 73.9067 523.241C50.8923 529.748 32.5823 536.527 22.5488 541.89Z" stroke="url(#paint2_linear_28_120)" stroke-width="3"/>
<path d="M34.2285 524.101C-20.2371 554.291 -26.6021 493.207 -1.41996 470.862C30.905 442.121 41.2668 419.844 48.5065 383.374C53.459 363.046 13.1482 373.494 -1.29869 348.127C-15.7456 322.76 19.9995 297.476 -2.80264 288.743C-37.4354 275.36 -55.2248 257.58 -60.7514 239.989C-66.5013 222.685 -60.1562 205.404 -46.1994 192.753C-33.1286 180.932 -13.403 173.177 9.30243 173.287C37.4634 175.265 59.8962 180.526 77.8488 189.384C99.7282 201.618 107.172 170.975 143.826 161.304C180.48 151.633 189.392 179.067 212.652 158.891C249.128 127.061 277.29 111.5 297.903 107.147C342.076 97.1729 352.043 138.168 334.09 180.928C323.908 205.579 312.464 224.828 303.804 241.256C290.809 263.794 334.4 270.746 341.222 290.552C352.862 325.094 309.144 333.339 337.505 355.411C348.721 364.209 361.937 373.764 377.465 384.282C412.378 408.382 428.976 431.134 433.698 450.637C445.478 489.214 410.677 517.724 369.738 524.216C346.234 527.887 320.746 524.358 300.79 511.407C278.091 496.679 253.476 466.378 221.648 465.539C198.554 464.526 192.127 527.509 149.424 527.481C121.961 527.606 100.37 502.264 81.0481 507.723C60.0882 513.644 43.3769 519.544 34.2285 524.101Z" stroke="url(#paint3_linear_28_120)" stroke-width="3"/>
<path d="M45.4493 507.064C-3.1604 533.634 -8.8388 478.916 13.8178 458.809C44.604 431.4 53.0921 410.661 58.4395 377.284C62.6961 359.072 26.5654 368.21 13.4619 345.471C0.358429 322.731 31.9271 300.055 11.5799 292.106C-19.3536 279.841 -35.0569 263.667 -39.6952 247.754C-44.6809 232.234 -38.8045 216.728 -26.1123 205.462C-14.2083 194.933 3.66015 188.145 24.1654 188.605C50.5375 191.92 73.567 193.496 90.5042 200.927C110.311 211.654 117.212 184.544 149.968 176.246C182.725 167.948 190.673 192.811 211.176 175.295C243.41 147.472 268.217 134.011 286.358 130.467C325.545 121.827 334.318 158.698 318.409 197.173C309.411 219.534 299.446 237.123 292.259 252.111C280.925 272.338 319.974 278.717 326.363 296.551C337.077 327.521 298.456 335.085 323.885 354.948C334.06 362.997 345.941 371.712 359.819 381.272C391.13 403.515 405.186 424.35 408.549 441.838C418.793 476.203 387.586 501.569 350.927 507.301C329.778 510.525 306.872 507.3 288.916 495.644C267.587 481.803 245.09 454.483 215.315 454.185C194.391 453.398 188.284 509.681 149.9 509.893C125.074 510.243 105.469 487.931 87.8997 492.894C68.9196 498.255 53.7467 503.296 45.4493 507.064Z" stroke="url(#paint4_linear_28_120)" stroke-width="3"/>
<path d="M56.4809 489.524C13.7243 512.461 8.76532 464.198 28.9026 446.347C58.1624 420.292 64.7857 401.118 68.2571 370.885C71.8268 354.814 39.8798 362.65 28.1357 342.58C16.3916 322.511 43.7885 302.461 25.9058 295.32C-1.31357 284.211 -14.9171 269.676 -18.6561 255.468C-22.8674 241.76 -17.4518 228.048 -6.02056 218.177C4.72019 208.951 20.7313 203.129 39.0313 203.927C63.6073 208.56 87.2339 206.43 103.149 212.413C120.872 221.605 127.245 198.067 156.1 191.136C184.955 184.205 191.922 206.453 209.674 191.614C237.672 167.824 259.126 156.47 274.791 153.73C308.988 146.416 316.542 179.101 302.659 213.238C294.835 233.28 286.342 249.189 280.62 262.716C270.94 280.607 305.433 286.38 311.378 302.211C321.147 329.556 287.629 336.448 310.107 354.055C319.235 361.339 329.773 369.194 341.991 377.772C369.681 398.104 381.177 416.982 383.169 432.428C391.853 462.52 364.234 484.721 331.861 489.706C313.07 492.49 292.754 489.587 276.807 479.254C256.862 466.335 236.502 442.051 208.784 442.312C190.037 441.766 184.218 491.263 150.162 491.738C127.978 492.326 110.377 473.091 94.5606 477.56C77.5616 482.364 63.9275 486.548 56.4809 489.524Z" stroke="url(#paint5_linear_28_120)" stroke-width="3"/>
<path d="M68.241 471.717C31.4382 490.984 27.1734 449.185 44.7387 433.611C72.3953 408.942 77.1278 391.346 78.6957 364.27C81.5601 350.348 53.8653 356.855 43.4892 339.453C33.1132 322.051 56.2702 304.655 40.8821 298.31C17.4223 288.341 5.93471 275.441 3.09172 262.939C-0.346841 251.044 4.58726 239.134 14.7277 230.669C24.2772 222.756 38.3951 217.913 54.4541 219.062C77.1876 225.025 101.363 219.213 116.228 223.757C131.84 231.424 137.655 211.47 162.547 205.927C187.439 200.385 193.427 220.017 208.381 207.872C232.072 188.14 250.122 178.911 263.278 176.987C292.412 171.026 298.757 199.519 286.951 229.299C280.331 247.01 273.338 261.226 269.103 273.284C261.108 288.826 290.981 294.017 296.482 307.844C305.305 331.561 276.961 337.755 296.458 353.118C304.525 359.64 313.705 366.639 324.246 374.241C348.274 392.676 357.202 409.599 357.83 423C364.96 448.818 341 467.827 312.979 472.04C296.585 474.37 278.896 471.775 264.984 462.757C246.452 450.751 228.253 429.495 202.648 430.296C186.114 429.976 180.63 472.671 150.97 473.382C131.472 474.192 115.894 458.026 101.866 461.989C86.8849 466.222 74.8198 469.538 68.241 471.717Z" stroke="url(#paint6_linear_28_120)" stroke-width="3"/>
<path d="M79.4653 454.691C48.5228 470.335 44.9475 434.912 59.9865 421.578C86.1107 398.239 88.9667 382.182 88.639 358.204C90.8072 346.402 67.2953 351.598 58.2643 336.828C49.2333 322.059 68.2101 307.274 55.2796 301.714C35.5229 292.867 26.1247 281.576 24.1724 270.754C21.4998 260.648 25.9661 250.514 34.842 243.435C43.2249 236.817 55.4849 232.941 69.3424 234.44C90.2885 241.743 115.071 232.233 128.923 235.347C142.461 241.504 147.735 225.088 168.726 220.92C189.716 216.751 194.738 233.808 206.933 224.328C226.378 208.609 241.07 201.483 251.751 200.369C275.895 195.743 281.042 220.106 271.28 245.593C265.845 261.012 260.331 273.567 257.571 284.181C251.239 297.409 276.565 302.026 281.633 313.876C289.53 334.016 266.289 339.529 282.85 352.677C289.875 358.45 297.719 364.608 306.607 371.249C327.03 387.823 333.41 402.826 332.675 414.21C338.264 435.806 317.9 451.668 294.163 455.122C280.125 457.005 265.02 454.715 253.109 446.994C235.948 435.878 219.867 417.609 196.312 418.954C181.95 418.862 176.783 454.845 151.445 455.8C134.585 456.836 120.994 443.706 108.72 447.174C95.7191 450.847 85.1928 453.303 79.4653 454.691Z" stroke="url(#paint7_linear_28_120)" stroke-width="3"/>
<path d="M90.5031 437.17C65.4224 449.18 62.5677 420.219 75.0856 409.144C99.6958 387.164 100.686 372.683 98.4795 351.862C99.9596 342.205 80.6366 346.097 72.9661 334.002C65.2956 321.907 80.0948 309.753 69.6324 305.003C53.5953 297.315 46.3011 287.666 45.2509 278.55C43.3543 270.257 47.3603 261.92 54.9744 256.236C62.1932 250.921 72.594 248.01 84.2429 249.844C103.388 258.451 128.793 245.24 141.627 246.902C153.08 251.523 157.825 238.68 174.909 235.878C191.992 233.076 196.03 247.513 205.467 240.711C220.668 229.026 232 224.008 240.199 223.698C259.345 220.4 263.271 240.57 255.537 261.714C251.275 274.809 247.234 285.677 245.943 294.825C241.267 305.712 262.031 309.721 266.655 319.564C273.606 336.072 255.475 340.909 269.082 351.799C275.058 356.803 281.557 362.098 288.783 367.755C305.578 382.412 309.39 395.456 307.279 404.799C311.307 422.121 294.535 434.815 275.088 437.521C263.41 438.965 250.898 436.998 241 430.603C225.222 420.418 211.281 405.192 189.779 407.1C177.594 407.25 172.715 436.442 151.708 437.658C137.491 438.933 125.903 428.882 115.382 431.856C104.363 434.972 95.3779 436.572 90.5031 437.17Z" stroke="url(#paint8_linear_28_120)" stroke-width="3"/>
<path d="M101.663 419.979C82.4563 428.362 80.2676 405.722 90.2505 396.875C113.331 376.186 112.424 363.21 108.292 345.44C109.065 337.885 93.9293 340.456 87.5923 330.964C81.2552 321.472 91.858 311.92 83.8507 307.937C71.5125 301.34 66.3029 293.273 66.1398 285.817C65.0043 279.296 68.5378 272.722 74.8844 268.421C80.934 264.397 89.4764 262.458 98.9264 264.66C116.303 274.655 142.34 257.706 154.171 257.946C163.556 261.072 167.752 251.752 180.93 250.337C194.109 248.921 197.191 260.816 203.858 256.68C214.798 249.007 222.761 246.098 228.48 246.608C242.627 244.659 245.37 260.74 239.7 277.626C236.636 288.452 234.088 297.68 234.285 305.403C231.285 313.992 247.505 317.453 251.707 325.343C257.748 338.31 244.731 342.461 255.41 351.169L255.692 351.413C260.547 355.61 265.623 360 271.094 364.624C284.296 377.468 285.561 388.625 282.084 395.967C284.582 409.102 271.417 418.656 256.257 420.591C246.936 421.58 237.007 419.904 229.103 414.785C214.676 405.452 202.837 393.171 183.373 395.614C173.358 395.984 168.815 418.513 152.131 419.96C140.551 421.454 130.939 414.416 122.171 416.892C113.134 419.445 105.687 420.179 101.663 419.979Z" stroke="url(#paint9_linear_28_120)" stroke-width="3"/>
<path d="M113.459 402.208C100.209 406.921 98.7218 390.771 106.131 384.208C127.59 364.934 124.803 353.557 118.784 338.97C118.856 333.572 107.977 334.818 103.015 328.006C98.0526 321.195 104.419 314.302 98.9093 311.123C90.3363 305.679 87.245 299.259 87.9775 293.52C87.6157 288.818 90.6667 284.053 95.7199 281.16C100.576 278.451 107.22 277.49 114.424 280.034C129.939 291.33 156.493 270.736 167.263 269.538C174.531 271.135 178.167 265.404 187.379 265.372C196.59 265.34 198.69 274.603 202.561 273.157C209.196 269.542 213.757 268.755 216.968 270.075C226.051 269.473 227.581 281.345 223.983 293.855C222.119 302.337 221.066 309.86 222.743 316.103C221.424 322.335 233.017 325.204 236.768 331.078C241.855 340.403 234.011 343.854 241.702 350.304C245.576 353.806 249.381 357.413 253.278 361.143C262.809 372.066 261.509 381.251 256.676 386.541C257.617 395.388 248.114 401.746 237.31 402.913C230.39 403.449 223.093 402.087 217.229 398.291C204.233 389.891 194.566 380.657 177.232 383.639C169.436 384.236 165.227 399.941 152.945 401.626C144.057 403.342 136.476 399.38 129.501 401.35C122.487 403.331 116.613 403.201 113.459 402.208Z" stroke="url(#paint10_linear_28_120)" stroke-width="3"/>
<path d="M124.463 384.534C117.125 385.602 116.335 375.89 121.194 371.591C141.082 353.696 136.418 343.896 128.509 332.46C127.882 329.203 121.226 329.132 117.624 324.979C114.022 320.827 116.178 316.573 113.148 314.191C108.312 309.887 107.327 305.097 108.954 301.057C109.363 298.162 111.939 295.19 115.713 293.694C119.388 292.29 124.154 292.3 129.131 295.186C142.817 307.79 169.946 283.533 179.679 280.9C184.851 280.976 187.937 278.81 193.212 280.155C198.487 281.5 199.61 288.154 200.701 289.386C203.056 289.806 204.234 291.131 204.95 293.259C209.003 294 209.325 301.696 207.786 309.868C207.114 316.028 207.548 321.864 210.702 326.64C211.055 330.533 218.059 332.816 221.368 336.693C225.513 342.402 222.809 345.16 227.536 349.371C230.356 352.112 232.811 354.864 235.04 357.62C240.929 366.646 237.069 373.883 230.874 377.139C230.265 381.73 224.392 384.916 217.912 385.319C213.371 385.406 208.684 384.355 204.841 381.871C193.247 374.391 185.728 368.179 170.483 371.704C164.882 372.53 160.998 381.463 153.079 383.388C146.857 385.329 141.286 384.424 136.084 385.892C131.071 387.308 126.755 386.318 124.463 384.534Z" stroke="url(#paint11_linear_28_120)" stroke-width="3"/>
<defs>
<linearGradient id="paint0_linear_28_120" x1="-83.845" y1="452.512" x2="438.757" y2="256.933" gradientUnits="userSpaceOnUse">
<stop stop-color="#620C90"/>
<stop offset="1" stop-color="#EF5B5B"/>
</linearGradient>
<linearGradient id="paint1_linear_28_120" x1="129.79" y1="350.748" x2="210.007" y2="320.728" gradientUnits="userSpaceOnUse">
<stop stop-color="#620C90"/>
<stop offset="1" stop-color="#EF5B5B"/>
</linearGradient>
<linearGradient id="paint2_linear_28_120" x1="-64.5007" y1="443.714" x2="416.801" y2="263.591" gradientUnits="userSpaceOnUse">
<stop stop-color="#620C90"/>
<stop offset="1" stop-color="#EF5B5B"/>
</linearGradient>
<linearGradient id="paint3_linear_28_120" x1="-44.4901" y1="434.279" x2="393.924" y2="270.206" gradientUnits="userSpaceOnUse">
<stop stop-color="#620C90"/>
<stop offset="1" stop-color="#EF5B5B"/>
</linearGradient>
<linearGradient id="paint4_linear_28_120" x1="-25.1459" y1="425.481" x2="371.968" y2="276.865" gradientUnits="userSpaceOnUse">
<stop stop-color="#620C90"/>
<stop offset="1" stop-color="#EF5B5B"/>
</linearGradient>
<linearGradient id="paint5_linear_28_120" x1="-5.92953" y1="416.342" x2="349.885" y2="283.182" gradientUnits="userSpaceOnUse">
<stop stop-color="#620C90"/>
<stop offset="1" stop-color="#EF5B5B"/>
</linearGradient>
<linearGradient id="paint6_linear_28_120" x1="14.0811" y1="406.905" x2="327.801" y2="289.498" gradientUnits="userSpaceOnUse">
<stop stop-color="#620C90"/>
<stop offset="1" stop-color="#EF5B5B"/>
</linearGradient>
<linearGradient id="paint7_linear_28_120" x1="33.4253" y1="398.108" x2="305.845" y2="296.157" gradientUnits="userSpaceOnUse">
<stop stop-color="#620C90"/>
<stop offset="1" stop-color="#EF5B5B"/>
</linearGradient>
<linearGradient id="paint8_linear_28_120" x1="52.6417" y1="388.969" x2="283.762" y2="302.474" gradientUnits="userSpaceOnUse">
<stop stop-color="#620C90"/>
<stop offset="1" stop-color="#EF5B5B"/>
</linearGradient>
<linearGradient id="paint9_linear_28_120" x1="71.858" y1="379.829" x2="261.679" y2="308.791" gradientUnits="userSpaceOnUse">
<stop stop-color="#620C90"/>
<stop offset="1" stop-color="#EF5B5B"/>
</linearGradient>
<linearGradient id="paint10_linear_28_120" x1="91.8687" y1="370.393" x2="239.595" y2="315.108" gradientUnits="userSpaceOnUse">
<stop stop-color="#620C90"/>
<stop offset="1" stop-color="#EF5B5B"/>
</linearGradient>
<linearGradient id="paint11_linear_28_120" x1="110.957" y1="360.912" x2="221.355" y2="319.597" gradientUnits="userSpaceOnUse">
<stop stop-color="#620C90"/>
<stop offset="1" stop-color="#EF5B5B"/>
</linearGradient>
</defs>
</svg>
