<svg width="554" height="603" viewBox="0 0 554 603" fill="none" xmlns="http://www.w3.org/2000/svg">
<path d="M-53.8229 154.687C-96.7781 -0.969421 62.344 -16.8133 177.177 30.1867C244.177 54.3582 288.177 -20.8133 371.177 9.18666C454.177 39.1867 354.678 133.687 481.678 182.187C608.678 230.687 546.677 447.687 435.677 450.187C324.677 452.687 355.177 489.187 244.177 572.687C133.177 656.187 -53.8226 540.187 -7.32267 417.687C39.1773 295.187 -7.32319 323.187 -53.8229 154.687Z" stroke="url(#paint0_linear_15_48)" stroke-width="3"/>
<path d="M185.075 275.825C180.119 261 203.333 237.083 222 247.29C239.093 256.637 256.5 250.333 268 254.5C298.275 265.47 287.139 271.277 300.673 284.305C317.141 300.16 325 341.675 287.139 341.675C256 341.675 265.317 356.799 242 363.5C218.683 370.201 192.24 358.794 192.24 328.763C192.24 317.485 193.33 300.517 185.075 275.825Z" stroke="url(#paint1_linear_15_48)" stroke-width="3"/>
<path d="M-32.1079 164.943C-71.6086 22.0898 75.1582 5.51197 181.249 49.1672C243.712 71.9909 285.295 3.08013 361.795 30.7317C440.001 59.0017 348.535 145.439 465.22 190.714C582.171 236.246 526.522 437.293 422.171 439.566C318.431 441.838 347.005 476.395 243.976 552.913C140.948 629.432 -31.4564 522.94 10.8163 408.846C53.089 296.457 10.915 320.37 -32.1079 164.943Z" stroke="url(#paint2_linear_15_48)" stroke-width="3"/>
<path d="M-10.3928 175.2C-46.4391 45.1494 87.9725 27.8377 185.321 68.148C243.247 89.6241 282.412 26.974 352.412 52.2771C425.826 78.8171 342.392 157.191 448.762 199.242C555.665 241.806 506.366 426.9 408.664 428.945C312.185 430.991 338.833 463.604 243.775 533.141C148.718 602.677 -9.08999 505.694 28.9554 400.007C67.0008 297.729 29.1533 317.553 -10.3928 175.2Z" stroke="url(#paint3_linear_15_48)" stroke-width="3"/>
<path d="M11.3225 185.457C-21.2694 68.2096 100.787 50.1639 189.393 87.1295C242.782 107.258 279.529 50.8685 343.029 73.8231C411.65 98.6331 336.249 168.944 432.304 207.77C529.159 247.367 486.211 416.507 395.158 418.325C305.938 420.143 330.661 450.814 243.575 513.368C156.488 575.923 13.2765 488.449 47.0947 391.167C80.9128 299.001 47.3917 314.737 11.3225 185.457Z" stroke="url(#paint4_linear_15_48)" stroke-width="3"/>
<path d="M33.0379 195.715C3.90049 91.2706 113.602 72.491 193.465 106.112C242.317 124.892 276.647 74.7637 333.647 95.3699C397.474 118.45 330.107 180.698 415.846 216.299C502.653 252.928 466.056 406.115 381.652 407.706C299.692 409.297 322.49 438.024 243.374 493.597C164.259 549.17 35.6432 471.204 65.2341 382.329C94.825 300.273 65.6303 311.922 33.0379 195.715Z" stroke="url(#paint5_linear_15_48)" stroke-width="3"/>
<path d="M54.7535 206.493C29.0706 114.851 126.416 95.3377 197.538 125.614C241.853 143.047 273.765 99.1786 324.265 117.436C383.299 138.786 323.964 192.971 399.389 225.348C476.147 259.009 445.901 396.243 368.146 397.607C293.447 398.97 314.318 425.754 243.174 474.345C172.03 522.937 58.0101 454.479 83.3737 374.01C108.737 302.066 83.8691 309.626 54.7535 206.493Z" stroke="url(#paint6_linear_15_48)" stroke-width="3"/>
<path d="M76.4695 217.886C54.2411 139.047 139.232 118.799 201.61 145.73C241.389 161.816 270.883 124.208 314.883 140.118C369.124 159.738 317.823 205.859 382.932 235.011C449.642 265.705 425.747 386.985 354.641 388.122C287.201 389.258 306.147 414.099 242.974 455.708C179.801 497.318 80.3774 438.369 101.514 366.306C122.65 304.473 102.108 307.945 76.4695 217.886Z" stroke="url(#paint7_linear_15_48)" stroke-width="3"/>
<path d="M98.1861 229.313C79.4121 163.276 152.047 142.295 205.684 165.881C240.925 180.619 268.002 149.272 305.502 162.833C354.95 180.723 311.681 218.782 366.475 244.709C423.137 272.435 405.593 377.762 341.136 378.671C280.956 379.58 297.976 402.477 242.775 437.106C187.573 471.734 102.745 422.293 119.654 358.636C136.563 306.914 120.348 306.299 98.1861 229.313Z" stroke="url(#paint8_linear_15_48)" stroke-width="3"/>
<path d="M119.904 240.789C104.584 187.555 164.864 165.84 209.758 186.081C240.462 199.471 265.121 174.385 296.121 185.598C340.776 201.758 305.541 231.753 350.02 254.456C396.633 279.214 385.44 368.588 327.632 369.27C274.712 369.952 289.807 390.906 242.576 418.552C195.345 446.198 125.114 406.266 137.796 351.016C150.478 309.405 138.589 304.701 119.904 240.789Z" stroke="url(#paint9_linear_15_48)" stroke-width="3"/>
<path d="M141.622 252.337C129.757 211.906 177.682 189.457 213.834 206.354C240.001 218.396 262.243 199.571 286.743 208.435C326.604 222.865 299.402 244.797 333.566 264.275C370.131 286.065 365.288 359.487 314.129 359.941C268.47 360.396 281.638 379.406 242.379 400.071C203.12 420.735 147.484 390.312 155.939 343.468C164.393 311.968 156.831 303.176 141.622 252.337Z" stroke="url(#paint10_linear_15_48)" stroke-width="3"/>
<path d="M163.345 263.996C154.934 236.368 190.504 213.185 217.913 226.736C239.543 237.431 259.367 224.866 277.367 231.382C312.435 244.082 293.266 257.952 317.115 274.205C343.632 293.027 345.14 350.495 300.63 350.722C262.231 350.95 273.474 368.017 242.185 381.7C210.897 395.383 169.858 374.467 174.085 336.03C178.312 314.641 175.076 301.761 163.345 263.996Z" stroke="url(#paint11_linear_15_48)" stroke-width="3"/>
<defs>
<linearGradient id="paint0_linear_15_48" x1="245.668" y1="2" x2="245.668" y2="601.007" gradientUnits="userSpaceOnUse">
<stop stop-color="#FF6B6B"/>
<stop offset="1" stop-color="#620C90"/>
</linearGradient>
<linearGradient id="paint1_linear_15_48" x1="249.366" y1="244.83" x2="249.366" y2="365.356" gradientUnits="userSpaceOnUse">
<stop stop-color="#FF6B6B"/>
<stop offset="1" stop-color="#620C90"/>
</linearGradient>
<linearGradient id="paint2_linear_15_48" x1="245.981" y1="24.0754" x2="245.981" y2="578.815" gradientUnits="userSpaceOnUse">
<stop stop-color="#FF6B6B"/>
<stop offset="1" stop-color="#620C90"/>
</linearGradient>
<linearGradient id="paint3_linear_15_48" x1="246.295" y1="46.1509" x2="246.295" y2="556.624" gradientUnits="userSpaceOnUse">
<stop stop-color="#FF6B6B"/>
<stop offset="1" stop-color="#620C90"/>
</linearGradient>
<linearGradient id="paint4_linear_15_48" x1="246.61" y1="68.2263" x2="246.61" y2="534.434" gradientUnits="userSpaceOnUse">
<stop stop-color="#FF6B6B"/>
<stop offset="1" stop-color="#620C90"/>
</linearGradient>
<linearGradient id="paint5_linear_15_48" x1="246.927" y1="90.3018" x2="246.927" y2="512.245" gradientUnits="userSpaceOnUse">
<stop stop-color="#FF6B6B"/>
<stop offset="1" stop-color="#620C90"/>
</linearGradient>
<linearGradient id="paint6_linear_15_48" x1="247.246" y1="112.377" x2="247.246" y2="490.576" gradientUnits="userSpaceOnUse">
<stop stop-color="#FF6B6B"/>
<stop offset="1" stop-color="#620C90"/>
</linearGradient>
<linearGradient id="paint7_linear_15_48" x1="247.569" y1="134.453" x2="247.569" y2="469.524" gradientUnits="userSpaceOnUse">
<stop stop-color="#FF6B6B"/>
<stop offset="1" stop-color="#620C90"/>
</linearGradient>
<linearGradient id="paint8_linear_15_48" x1="247.896" y1="156.528" x2="247.896" y2="448.508" gradientUnits="userSpaceOnUse">
<stop stop-color="#FF6B6B"/>
<stop offset="1" stop-color="#620C90"/>
</linearGradient>
<linearGradient id="paint9_linear_15_48" x1="248.231" y1="178.604" x2="248.231" y2="427.545" gradientUnits="userSpaceOnUse">
<stop stop-color="#FF6B6B"/>
<stop offset="1" stop-color="#620C90"/>
</linearGradient>
<linearGradient id="paint10_linear_15_48" x1="248.578" y1="200.679" x2="248.578" y2="406.661" gradientUnits="userSpaceOnUse">
<stop stop-color="#FF6B6B"/>
<stop offset="1" stop-color="#620C90"/>
</linearGradient>
<linearGradient id="paint11_linear_15_48" x1="248.948" y1="222.755" x2="248.948" y2="385.901" gradientUnits="userSpaceOnUse">
<stop stop-color="#FF6B6B"/>
<stop offset="1" stop-color="#620C90"/>
</linearGradient>
</defs>
</svg>
